<svg width="266" height="78" viewBox="0 0 266 78" fill="none" xmlns="http://www.w3.org/2000/svg" 
<g filter="url(#filter0_d)">
<path d="M1.71 3.08L0.42 3.08L3.89 12.88L4.73 12.88L7.41 5.22L7.48 5.22L10.07 12.88L10.89 12.88L14.36 3.08L13.72 3.08L10.82 11.26L10.77 11.26L8.04 3.08L7.43 3.08L4.65 11.21L4.59 11.21L1.71 3.08ZM22.74 9.39L22.74 9.39L22.74 9.39Q22.74 10.12 22.48 10.79L22.48 10.79L22.48 10.79Q22.23 11.45 21.76 11.96L21.76 11.96L21.76 11.96Q21.29 12.46 20.63 12.75L20.63 12.75L20.63 12.75Q19.96 13.05 19.14 13.05L19.14 13.05L19.14 13.05Q18.30 13.05 17.62 12.75L17.62 12.75L17.62 12.75Q16.94 12.45 16.47 11.94L16.47 11.94L16.47 11.94Q16.00 11.44 15.74 10.77L15.74 10.77L15.74 10.77Q15.48 10.11 15.48 9.39L15.48 9.39L15.48 9.39Q15.48 8.67 15.74 8.00L15.74 8.00L15.74 8.00Q16.00 7.34 16.47 6.83L16.47 6.83L16.47 6.83Q16.94 6.33 17.62 6.03L17.62 6.03L17.62 6.03Q18.30 5.73 19.14 5.73L19.14 5.73L19.14 5.73Q19.96 5.73 20.63 6.03L20.63 6.03L20.63 6.03Q21.29 6.33 21.76 6.83L21.76 6.83L21.76 6.83Q22.23 7.34 22.48 8.00L22.48 8.00L22.48 8.00Q22.74 8.67 22.74 9.39ZM21.41 9.39L21.41 9.39L21.41 9.39Q21.41 8.41 21.20 7.81L21.20 7.81L21.20 7.81Q20.99 7.20 20.65 6.86L20.65 6.86L20.65 6.86Q20.31 6.52 19.91 6.41L19.91 6.41L19.91 6.41Q19.50 6.29 19.12 6.29L19.12 6.29L19.12 6.29Q18.75 6.29 18.34 6.41L18.34 6.41L18.34 6.41Q17.93 6.52 17.59 6.86L17.59 6.86L17.59 6.86Q17.25 7.20 17.03 7.81L17.03 7.81L17.03 7.81Q16.81 8.41 16.81 9.39L16.81 9.39L16.81 9.39Q16.81 10.36 17.03 10.97L17.03 10.97L17.03 10.97Q17.25 11.58 17.59 11.91L17.59 11.91L17.59 11.91Q17.93 12.25 18.34 12.37L18.34 12.37L18.34 12.37Q18.75 12.49 19.12 12.49L19.12 12.49L19.12 12.49Q19.50 12.49 19.91 12.37L19.91 12.37L19.91 12.37Q20.31 12.25 20.65 11.91L20.65 11.91L20.65 11.91Q20.99 11.58 21.20 10.97L21.20 10.97L21.20 10.97Q21.41 10.36 21.41 9.39ZM31.39 9.39L31.39 9.39L31.39 9.39Q31.39 10.12 31.14 10.79L31.14 10.79L31.14 10.79Q30.88 11.45 30.41 11.96L30.41 11.96L30.41 11.96Q29.95 12.46 29.28 12.75L29.28 12.75L29.28 12.75Q28.62 13.05 27.79 13.05L27.79 13.05L27.79 13.05Q26.95 13.05 26.27 12.75L26.27 12.75L26.27 12.75Q25.59 12.45 25.12 11.94L25.12 11.94L25.12 11.94Q24.65 11.44 24.39 10.77L24.39 10.77L24.39 10.77Q24.14 10.11 24.14 9.39L24.14 9.39L24.14 9.39Q24.14 8.67 24.39 8.00L24.39 8.00L24.39 8.00Q24.65 7.34 25.12 6.83L25.12 6.83L25.12 6.83Q25.59 6.33 26.27 6.03L26.27 6.03L26.27 6.03Q26.95 5.73 27.79 5.73L27.79 5.73L27.79 5.73Q28.62 5.73 29.28 6.03L29.28 6.03L29.28 6.03Q29.95 6.33 30.41 6.83L30.41 6.83L30.41 6.83Q30.88 7.34 31.14 8.00L31.14 8.00L31.14 8.00Q31.39 8.67 31.39 9.39ZM30.06 9.39L30.06 9.39L30.06 9.39Q30.06 8.41 29.85 7.81L29.85 7.81L29.85 7.81Q29.64 7.20 29.30 6.86L29.30 6.86L29.30 6.86Q28.97 6.52 28.56 6.41L28.56 6.41L28.56 6.41Q28.15 6.29 27.78 6.29L27.78 6.29L27.78 6.29Q27.40 6.29 26.99 6.41L26.99 6.41L26.99 6.41Q26.59 6.52 26.24 6.86L26.24 6.86L26.24 6.86Q25.90 7.20 25.68 7.81L25.68 7.81L25.68 7.81Q25.47 8.41 25.47 9.39L25.47 9.39L25.47 9.39Q25.47 10.36 25.68 10.97L25.68 10.97L25.68 10.97Q25.90 11.58 26.24 11.91L26.24 11.91L26.24 11.91Q26.59 12.25 26.99 12.37L26.99 12.37L26.99 12.37Q27.40 12.49 27.78 12.49L27.78 12.49L27.78 12.49Q28.15 12.49 28.56 12.37L28.56 12.37L28.56 12.37Q28.97 12.25 29.30 11.91L29.30 11.91L29.30 11.91Q29.64 11.58 29.85 10.97L29.85 10.97L29.85 10.97Q30.06 10.36 30.06 9.39ZM39.42 12.88L39.42 3.08L38.23 3.08L38.23 7.03L38.18 7.03L38.18 7.03Q38.04 6.66 37.81 6.42L37.81 6.42L37.81 6.42Q37.58 6.17 37.28 6.02L37.28 6.02L37.28 6.02Q36.99 5.87 36.66 5.80L36.66 5.80L36.66 5.80Q36.33 5.73 35.99 5.73L35.99 5.73L35.99 5.73Q35.29 5.73 34.71 5.99L34.71 5.99L34.71 5.99Q34.12 6.24 33.69 6.72L33.69 6.72L33.69 6.72Q33.26 7.20 33.03 7.87L33.03 7.87L33.03 7.87Q32.79 8.54 32.79 9.37L32.79 9.37L32.79 9.37Q32.79 10.21 33.03 10.89L33.03 10.89L33.03 10.89Q33.26 11.56 33.69 12.05L33.69 12.05L33.69 12.05Q34.12 12.53 34.71 12.79L34.71 12.79L34.71 12.79Q35.29 13.05 35.99 13.05L35.99 13.05L35.99 13.05Q37.65 13.05 38.18 11.75L38.18 11.75L38.23 11.75L38.23 12.88L39.42 12.88ZM38.23 8.86L38.23 10.08L38.23 10.08Q38.23 10.54 38.08 10.96L38.08 10.96L38.08 10.96Q37.93 11.37 37.67 11.67L37.67 11.67L37.67 11.67Q37.41 11.97 37.05 12.15L37.05 12.15L37.05 12.15Q36.69 12.32 36.29 12.32L36.29 12.32L36.29 12.32Q35.84 12.32 35.45 12.16L35.45 12.16L35.45 12.16Q35.06 12.00 34.76 11.65L34.76 11.65L34.76 11.65Q34.47 11.30 34.29 10.74L34.29 10.74L34.29 10.74Q34.12 10.18 34.12 9.39L34.12 9.39L34.12 9.39Q34.12 8.60 34.29 8.04L34.29 8.04L34.29 8.04Q34.47 7.48 34.77 7.12L34.77 7.12L34.77 7.12Q35.07 6.76 35.46 6.60L35.46 6.60L35.46 6.60Q35.85 6.44 36.29 6.44L36.29 6.44L36.29 6.44Q36.68 6.44 37.03 6.60L37.03 6.60L37.03 6.60Q37.38 6.76 37.65 7.08L37.65 7.08L37.65 7.08Q37.91 7.39 38.07 7.84L38.07 7.84L38.07 7.84Q38.23 8.29 38.23 8.86L38.23 8.86ZM44.24 5.73L44.24 5.73L44.24 5.73Q45.26 5.73 45.82 6.01L45.82 6.01L45.82 6.01Q46.38 6.30 46.64 6.76L46.64 6.76L46.64 6.76Q46.90 7.22 46.94 7.83L46.94 7.83L46.94 7.83Q46.98 8.43 46.98 9.06L46.98 9.06L46.98 12.88L45.85 12.88L45.85 12.19L45.85 12.19Q45.44 12.59 44.81 12.82L44.81 12.82L44.81 12.82Q44.18 13.05 43.55 13.05L43.55 13.05L43.55 13.05Q42.95 13.05 42.49 12.84L42.49 12.84L42.49 12.84Q42.03 12.63 41.72 12.29L41.72 12.29L41.72 12.29Q41.41 11.96 41.26 11.54L41.26 11.54L41.26 11.54Q41.10 11.12 41.10 10.68L41.10 10.68L41.10 10.68Q41.10 10.23 41.27 9.79L41.27 9.79L41.27 9.79Q41.44 9.34 41.78 8.98L41.78 8.98L41.78 8.98Q42.11 8.62 42.60 8.40L42.60 8.40L42.60 8.40Q43.09 8.18 43.72 8.18L43.72 8.18L43.72 8.18Q44.35 8.18 44.92 8.42L44.92 8.42L44.92 8.42Q45.49 8.67 45.85 9.11L45.85 9.11L45.85 8.51L45.85 8.51Q45.85 7.36 45.51 6.80L45.51 6.80L45.51 6.80Q45.16 6.24 44.25 6.24L44.25 6.24L44.25 6.24Q43.86 6.24 43.57 6.34L43.57 6.34L43.57 6.34Q43.27 6.44 43.04 6.62L43.04 6.62L43.04 6.62Q42.81 6.79 42.62 7.05L42.62 7.05L42.62 7.05Q42.42 7.31 42.22 7.63L42.22 7.63L41.50 6.90L41.50 6.90Q41.69 6.69 41.91 6.48L41.91 6.48L41.91 6.48Q42.13 6.27 42.44 6.10L42.44 6.10L42.44 6.10Q42.76 5.94 43.19 5.83L43.19 5.83L43.19 5.83Q43.62 5.73 44.24 5.73ZM45.85 11.19L45.85 10.11L45.85 10.11Q45.78 9.94 45.65 9.72L45.65 9.72L45.65 9.72Q45.51 9.49 45.30 9.28L45.30 9.28L45.30 9.28Q45.09 9.07 44.80 8.93L44.80 8.93L44.80 8.93Q44.51 8.78 44.10 8.78L44.10 8.78L44.10 8.78Q43.69 8.78 43.36 8.94L43.36 8.94L43.36 8.94Q43.02 9.10 42.79 9.36L42.79 9.36L42.79 9.36Q42.56 9.62 42.43 9.97L42.43 9.97L42.43 9.97Q42.31 10.32 42.31 10.70L42.31 10.70L42.31 10.70Q42.31 11.14 42.47 11.47L42.47 11.47L42.47 11.47Q42.63 11.80 42.88 12.03L42.88 12.03L42.88 12.03Q43.13 12.26 43.44 12.38L43.44 12.38L43.44 12.38Q43.75 12.49 44.03 12.49L44.03 12.49L44.03 12.49Q44.30 12.49 44.57 12.39L44.57 12.39L44.57 12.39Q44.84 12.29 45.09 12.12L45.09 12.12L45.09 12.12Q45.33 11.94 45.53 11.70L45.53 11.70L45.53 11.70Q45.72 11.47 45.85 11.19L45.85 11.19ZM50.41 5.88L49.22 5.88L49.22 12.88L50.41 12.88L50.41 8.65L50.41 8.65Q50.41 8.08 50.55 7.68L50.55 7.68L50.55 7.68Q50.68 7.28 50.89 7.03L50.89 7.03L50.89 7.03Q51.10 6.78 51.35 6.66L51.35 6.66L51.35 6.66Q51.60 6.55 51.84 6.55L51.84 6.55L51.84 6.55Q52.16 6.55 52.44 6.76L52.44 6.76L52.44 6.76Q52.71 6.97 52.84 7.15L52.84 7.15L53.31 6.29L53.31 6.29Q53.19 6.12 53.01 6.01L53.01 6.01L53.01 6.01Q52.84 5.89 52.66 5.83L52.66 5.83L52.66 5.83Q52.49 5.77 52.34 5.75L52.34 5.75L52.34 5.75Q52.19 5.73 52.12 5.73L52.12 5.73L52.12 5.73Q51.53 5.73 51.14 6.05L51.14 6.05L51.14 6.05Q50.75 6.37 50.50 7.00L50.50 7.00L50.41 7.00L50.41 5.88ZM55.09 6.44L53.87 6.44L53.87 5.88L55.09 5.88L55.09 3.72L56.28 3.72L56.28 5.88L57.97 5.88L57.97 6.44L56.28 6.44L56.28 11.09L56.28 11.09Q56.28 11.26 56.29 11.47L56.29 11.47L56.29 11.47Q56.31 11.69 56.38 11.88L56.38 11.88L56.38 11.88Q56.45 12.07 56.59 12.19L56.59 12.19L56.59 12.19Q56.74 12.32 57.01 12.32L57.01 12.32L57.01 12.32Q57.34 12.32 57.57 12.07L57.57 12.07L57.57 12.07Q57.79 11.82 57.93 11.52L57.93 11.52L58.59 12.19L58.59 12.19Q57.90 12.88 57.04 12.88L57.04 12.88L57.04 12.88Q56.67 12.88 56.32 12.75L56.32 12.75L56.32 12.75Q55.97 12.63 55.70 12.37L55.70 12.37L55.70 12.37Q55.43 12.11 55.26 11.70L55.26 11.70L55.26 11.70Q55.09 11.30 55.09 10.75L55.09 10.75L55.09 6.44Z"></path></g><defs data-v-fde0c5aa=""><!----></defs><g data-v-fde0c5aa="" id="9ac2e4bc-85fe-4227-8b9a-8887eef4bc8d" stroke="none" fill="#AB7A5F" transform="matrix(0.5218588040784927,0,0,0.5218588040784927,35.30327076329357,127.0734374030186)"><path d="M45 2.199L9 23.068v41.729l36 20.869 36-20.869V23.068L45 2.199zm33 60.869L45 82.199 12 63.068V24.797L45 5.666l33 19.131v38.271z"></path><path d="M29.961 32.868c-2.059 1.814-3.306 4.536-3.306 7.49 0 .692.073 1.368.209 2.02l-6.383 6.382-.059.059-.103.103.005.005a9.848 9.848 0 0 0-2.773 6.851c0 5.454 4.437 9.891 9.891 9.891 3.581 0 6.715-1.92 8.45-4.779 1.736 2.859 4.869 4.779 8.451 4.779 3.562 0 6.68-1.899 8.422-4.732L69.01 40.869l.107.067a8.597 8.597 0 0 0 1.317-4.582c0-4.752-3.865-8.617-8.617-8.617-.38 0-.755.033-1.126.081.185-.708.29-1.441.29-2.192 0-4.751-3.865-8.616-8.617-8.616a8.545 8.545 0 0 0-6.08 2.516L29.961 32.868zm6.584.433c3.891 0 7.057 3.166 7.057 7.057s-3.166 7.056-7.057 7.056-7.056-3.165-7.056-7.056 3.165-7.057 7.056-7.057zm-8.569 11.973c.13.226.264.449.411.663a9.87 9.87 0 0 0-.946-.048c-.028 0-.055.004-.084.004l.619-.619zM34 56.222c0 3.684-3.055 6.613-6.796 6.613-3.891 0-6.938-3.166-6.938-7.057 0-1.922.834-3.664 2.084-4.938l.122-.093c1.274-1.25 2.795-2.025 4.717-2.025 3.741 0 6.811 2.928 6.811 6.612v.888zm15.869 3.929a7.04 7.04 0 0 1-5.527 2.684c-3.741 0-6.803-2.929-7.034-6.613.007-.148.022-.294.022-.443s-.016-.295-.022-.443c.231-3.684 3.293-6.612 7.034-6.612a7.064 7.064 0 0 1 7.056 7.056 7.003 7.003 0 0 1-.937 3.499l-.592.872zm8.763-28.623a5.743 5.743 0 0 1 3.186-.957 5.79 5.79 0 0 1 5.783 5.783c0 .833-.18 1.647-.521 2.395L54.17 54.696a9.795 9.795 0 0 0-.52-2.229l8.533-9.818-2.139-1.859-7.837 9.017a9.88 9.88 0 0 0-6.239-3.773L58.19 31.886c.079-.065.155-.135.237-.195l.205-.163zm-2.111-9.912l-8.726 9.382 2.076 1.93 8.097-8.705c.113.451.18.919.18 1.404a5.717 5.717 0 0 1-.808 2.906l-1.046 1.211c-.195.164-.503.582-.503.582l-9.398 10.88a9.95 9.95 0 0 0 .043-.849c0-5.221-4.069-9.499-9.201-9.856l11.502-9.313-.031-.038a5.77 5.77 0 0 1 7.815.466z"></path><path d="M37 45.774V42.94c-2 0-3.038-.94-3.038-2.94h-2.834c0 3 2.872 5.774 5.872 5.774zM44 59.437v-1.076c-1 0-2.241-1.361-2.241-2.361h-2.834c0 3 2.075 5.195 5.075 5.195v-1.758zM27 59.339v-.978c-1 0-2.143-1.361-2.143-2.361h-2.834c0 3 1.977 5.195 4.977 5.195v-1.856z"></path></g><!----></svg>